<?xml version="1.0" standalone="no"?>
<!DOCTYPE svg PUBLIC "-//W3C//DTD SVG 20010904//EN"
 "http://www.w3.org/TR/2001/REC-SVG-20010904/DTD/svg10.dtd">
<svg version="1.0" xmlns="http://www.w3.org/2000/svg"
 width="100.000000pt" height="100.000000pt" viewBox="0 0 100.000000 100.000000"
 preserveAspectRatio="xMidYMid meet">
<metadata>
Created by potrace 1.11, written by Peter Selinger 2001-2013
</metadata>
<g transform="translate(0.000000,100.000000) scale(0.100000,-0.100000)"
fill="#000000" stroke="none">
<path d="M248 959 c-22 -12 -23 -42 -3 -59 9 -8 15 -30 15 -57 0 -40 -6 -51
-50 -100 -67 -73 -91 -129 -97 -223 -8 -118 54 -359 119 -468 l20 -32 250 2
250 3 22 40 c34 61 84 210 102 305 31 165 5 277 -86 374 -45 48 -50 57 -50 99
0 35 4 47 15 47 30 0 39 54 11 72 -17 11 -499 9 -518 -3z"/>
</g>
</svg>
